<?xml version="1.0" encoding="utf-8"?>
<!-- Generator: Adobe Illustrator 18.1.0, SVG Export Plug-In . SVG Version: 6.00 Build 0)  -->
<svg version="1.1" id="pc-logo" xmlns="http://www.w3.org/2000/svg" xmlns:xlink="http://www.w3.org/1999/xlink" x="0px" y="0px"
	 viewBox="115 389.1 612 214" style="enable-background:new 115 389.1 612 214;" xml:space="preserve">
<path d="M124.1,487.3v-98.2h42.3c4.8,0,9.2,1,13.3,3c4.1,2,7.5,4.6,10.4,7.7s5.2,6.9,6.9,10.9c1.7,4.1,2.5,8.2,2.5,12.4
	c0,4.4-0.8,8.5-2.4,12.6c-1.6,4.1-3.8,7.7-6.6,10.9c-2.8,3.2-6.3,5.8-10.2,7.6c-4,1.9-8.4,2.9-13.2,2.9H151v30.2
	C151.1,487.3,124.1,487.3,124.1,487.3z M151.1,433.7h14.3c1.7,0,3.2-0.8,4.7-2.3c1.4-1.5,2.2-4.3,2.2-8.2c0-4.1-0.8-6.9-2.5-8.3
	c-1.7-1.5-3.3-2.2-5-2.2h-13.6L151.1,433.7L151.1,433.7z"/>
<path d="M297.2,389.1v98.2h-27v-38.4h-33v38.4h-26.9v-98.2h27v36.2h33v-36.2H297.2z"/>
<path d="M314.1,487.3v-98.2h27v98.2H314.1z"/>
<path d="M358,487.3v-98.2h27v74.7h44.6v23.5H358z"/>
<path d="M442.6,487.3v-98.2h27v98.2H442.6z"/>
<path d="M487.1,487.3v-98.2h42.3c4.8,0,9.2,1,13.3,3c4.1,2,7.5,4.6,10.4,7.7c2.9,3.2,5.2,6.9,6.9,10.9c1.7,4.1,2.5,8.2,2.5,12.4
	c0,4.4-0.8,8.5-2.4,12.6c-1.6,4.1-3.8,7.7-6.6,10.9s-6.3,5.8-10.2,7.6c-4,1.9-8.4,2.9-13.2,2.9H514v30.2
	C514.1,487.3,487.1,487.3,487.1,487.3z M514.1,433.7h14.3c1.7,0,3.2-0.8,4.7-2.3c1.4-1.5,2.2-4.3,2.2-8.2c0-4.1-0.8-6.9-2.5-8.3
	c-1.7-1.5-3.3-2.2-5-2.2h-13.6L514.1,433.7L514.1,433.7z"/>
<path d="M570.2,487.3v-98.2h42.3c4.8,0,9.2,1,13.3,3c4.1,2,7.5,4.6,10.4,7.7c2.9,3.2,5.2,6.9,6.9,10.9c1.7,4.1,2.5,8.2,2.5,12.4
	c0,4.4-0.8,8.5-2.4,12.6c-1.6,4.1-3.8,7.7-6.6,10.9s-6.3,5.8-10.2,7.6c-4,1.9-8.4,2.9-13.2,2.9h-16.1v30.2
	C597.1,487.3,570.2,487.3,570.2,487.3z M597.1,433.7h14.3c1.7,0,3.2-0.8,4.7-2.3c1.4-1.5,2.2-4.3,2.2-8.2c0-4.1-0.8-6.9-2.5-8.3
	c-1.7-1.5-3.3-2.2-5-2.2h-13.6L597.1,433.7L597.1,433.7z"/>
<path d="M658.2,487.3v-98.2h68.7v23.5h-41.8v13.8h35.6v21.8h-35.6v15.5L658.2,487.3z"/>
<path d="M685.2,503.9v39h35.6v21.8h-35.6v13.8H727v23.5h-68.8v-74.9L685.2,503.9z"/>
<path d="M115,551.1c0-6,1.1-11.9,3.4-17.7c2.3-5.9,5.6-11,9.9-15.6c4.4-4.6,9.6-8.3,15.8-11.2s13.2-4.3,21.2-4.3
	c9.5,0,17.8,2,24.7,5.9c7,3.9,12.1,9.1,15.6,15.6l-20.7,14.7c-0.9-2.4-2.2-4.4-3.7-6c-1.5-1.6-3.2-2.8-5.1-3.8
	c-1.9-0.9-3.8-1.6-5.8-2c-2-0.4-3.9-0.6-5.8-0.6c-3.9,0-7.2,0.8-10,2.3c-2.8,1.5-5.2,3.5-7,6c-1.8,2.5-3.2,5.2-4,8.3
	c-0.9,3.1-1.3,6.2-1.3,9.2c0,3.4,0.5,6.7,1.5,9.8s2.5,5.9,4.5,8.3c1.9,2.4,4.3,4.3,7.1,5.8c2.8,1.4,6,2.2,9.4,2.2
	c1.9,0,3.8-0.2,5.7-0.6c1.9-0.4,3.8-1.1,5.6-2.1c1.8-1,3.4-2.2,4.9-3.8c1.4-1.5,2.6-3.4,3.4-5.6l22,13.1c-1.5,3.6-3.7,6.9-6.8,9.7
	c-3,2.9-6.5,5.3-10.2,7.1c-3.9,1.9-7.9,3.4-12.3,4.5c-4.4,1-8.6,1.5-12.8,1.5c-7.2,0-14-1.5-20-4.4c-6.1-2.9-11.2-6.8-15.6-11.5
	c-4.4-4.8-7.7-10.2-10.1-16.3C116.2,563.7,115,557.5,115,551.1z"/>
<path d="M286.6,578.6v23.5h-70v-98.2h68.7v23.5h-41.8v13.8h35.6v21.8h-35.6v15.5L286.6,578.6L286.6,578.6z"/>
<path d="M302.3,602.1v-98.2H340c8.1,0,15.3,1.3,21.4,3.9c6.2,2.6,11.3,6.1,15.5,10.5c4.2,4.5,7.2,9.6,9.4,15.6
	c2.1,6,3.2,12.3,3.2,19.1c0,7.4-1.2,14.2-3.6,20.3c-2.4,6.1-5.7,11.2-10,15.5s-9.5,7.6-15.6,9.9c-6.1,2.4-12.9,3.6-20.4,3.6
	L302.3,602.1L302.3,602.1z M362.3,552.8c0-3.8-0.5-7.2-1.5-10.3c-1-3.2-2.5-5.9-4.4-8c-1.9-2.2-4.2-4-7-5.2
	c-2.8-1.3-5.9-1.9-9.2-1.9h-10.8v51.1h10.8c3.5,0,6.7-0.6,9.4-1.9c2.8-1.3,5.1-3.1,7-5.4c1.9-2.3,3.3-5.1,4.3-8.1
	C361.8,560,362.3,556.5,362.3,552.8z"/>
<path d="M470.8,578.6v23.5h-70v-98.2h68.7v23.5h-41.8v13.8h35.6v21.8h-35.6v15.5L470.8,578.6L470.8,578.6z"/>
<path d="M487.1,602.1v-98.2h27v74.7h44.6v23.5H487.1z"/>
<path d="M569.9,602.1v-98.2h27v74.7h44.6v23.5H569.9z"/>
</svg>
